PathFileType	4	(X/Y/Z)	F:\MotionCapture\20160217\3\Generated_files\EMG_Fprce_test04-Dynamic.trc
DataRate	CameraRate	NumFrames	NumMarkers	Units	OrigDataRate	OrigDataStartFrame	OrigNumFrames
120.00	120.00	       4	39	mm	120.00	1	       566
Frame#	Time	Top.Head			Front.Head			Rear.Head			R.Shoulder			R.Offset			R.Elbow			R.Wrist			L.Shoulder			L.Elbow			L.Wrist			R.ASIS			L.ASIS			V.Sacral			R.Thigh			R.Knee			R.Shank			R.Ankle			R.Heel			R.Toe			L.Thigh			L.Knee			L.Shank			L.Ankle			L.Heel			L.Toe			R1			R2			R3			R4			R5			R6			R7			L1			L2			L3			L4			L5			L6			L7			V_Mid_ASIS			V_Pelvis_Origin			V_R.Hip_JC			V_L.Hip_JC			V_R.Knee_JC			V_L.Knee_JC			V_R.Ankle_JC			V_L.Ankle_JC			V_Mid_Hip			V_Mid_Shoulder			V_R.Hand			V_L.Hand			V_R.Toe_Offset_Static			V_L.Toe_Offset_Static			V_R.Toe_Offset			V_L.Toe_Offset			
		X1	Y1	Z1	X2	Y2	Z2	X3	Y3	Z3	X4	Y4	Z4	X5	Y5	Z5	X6	Y6	Z6	X7	Y7	Z7	X8	Y8	Z8	X9	Y9	Z9	X10	Y10	Z10	X11	Y11	Z11	X12	Y12	Z12	X13	Y13	Z13	X14	Y14	Z14	X15	Y15	Z15	X16	Y16	Z16	X17	Y17	Z17	X18	Y18	Z18	X19	Y19	Z19	X20	Y20	Z20	X21	Y21	Z21	X22	Y22	Z22	X23	Y23	Z23	X24	Y24	Z24	X25	Y25	Z25	X26	Y26	Z26	X27	Y27	Z27	X28	Y28	Z28	X29	Y29	Z29	X30	Y30	Z30	X31	Y31	Z31	X32	Y32	Z32	X33	Y33	Z33	X34	Y34	Z34	X35	Y35	Z35	X36	Y36	Z36	X37	Y37	Z37	X38	Y38	Z38	X39	Y39	Z39	

1	0.000	2404.47925	113.99017	1740.03870	2280.16479	115.91012	1675.87280	2500.93140	104.04192	1654.77930	2411.93506	309.32037	1427.31506	2531.39038	37.83533	1276.72375	2404.27783	416.64938	1100.99316	2226.15674	390.84186	906.56189	2385.15186	-101.24747	1430.89319	2383.73242	-189.40930	1105.25354	2285.06201	-175.89955	867.96191	2329.87793	261.99170	956.02216	2309.65918	-28.27028	949.73865	2541.59009	97.77016	949.37433	2311.28394	224.32790	577.22614	2383.86768	263.11618	472.43860	2409.72925	192.37451	237.15602	2483.23267	258.65073	76.22604	2545.85571	191.80086	47.49224	2339.36450	258.99298	49.67429	2262.55420	21.90836	627.64972	2346.04224	-34.73950	463.99295	2358.93237	40.51841	321.70337	2464.51318	-27.09940	68.63351	2532.40942	27.41520	50.78820	2329.25830	-23.87545	52.21781	2291.14404	243.26297	46.11464	2330.10376	223.93289	56.83027	2424.12793	177.26927	62.66819	2496.77783	166.41252	46.37427	2521.33252	238.58171	48.31385	2448.68945	274.63538	41.10858	2382.70337	296.09479	42.78251	2284.41992	1.92221	48.38746	2317.63843	13.14650	53.95406	2410.22217	58.67998	55.85640	2492.85889	58.76583	49.03181	2505.74341	-12.70042	50.90925	2431.17969	-42.52785	43.22461	2369.02295	-52.57211	48.47545																																																	3012.10767	72.95530	851.03516	
2	0.008	2402.89600	113.68826	1740.02979	2278.22266	115.53786	1675.96277	2498.78003	103.82327	1654.62659	2409.40771	308.36313	1426.87195	2529.46582	37.25767	1276.71814	2401.88599	415.52808	1100.63269	2222.83887	388.71124	906.95477	2383.12671	-101.66306	1430.93713	2383.90552	-190.01532	1104.73669	2288.39819	-177.27209	866.91803	2328.88696	261.19565	955.81775	2309.34351	-28.76583	949.29895	2540.36475	96.71326	949.60907	2310.67334	223.96564	576.95233	2383.76221	262.92426	472.29575	2409.46216	192.39859	236.99068	2483.28491	258.68518	76.22862	2545.89673	191.78261	47.48331	2339.49951	259.01492	49.74421	2260.85791	21.88617	627.43738	2345.44458	-34.89465	463.74451	2358.25073	40.38582	321.68735	2464.54858	-27.13472	68.59188	2532.62573	27.23717	50.76734	2329.35889	-23.81267	52.27431	2291.25684	243.39955	46.23508	2330.12866	224.05817	56.73671	2424.08081	177.34010	62.69173	2496.84766	166.44032	46.38129	2521.41113	238.65213	48.29790	2448.77100	274.66257	41.18114	2382.66382	296.12854	42.72948	2284.69946	1.88484	48.56017	2317.80249	13.38202	54.10604	2410.52637	58.81092	55.95356	2493.44336	59.09595	49.31870	2505.95947	-12.87244	50.86020	2431.40234	-43.51255	42.90167	2369.19385	-52.34086	48.56503																																																	3008.57861	72.92194	850.71100	2922.43140	96.30035	-118.26375	
3	0.017	2400.70435	113.02263	1740.13428	2276.42578	115.38568	1675.91016	2496.57153	103.26286	1654.58301	2407.45142	307.69672	1426.47290	2527.71460	36.46576	1276.98865	2399.89087	414.89096	1100.43884	2220.35571	386.61404	907.37469	2380.75635	-102.80103	1430.90149	2384.07617	-190.88002	1104.91833	2291.33569	-178.44725	865.35242	2326.88647	260.29376	955.61401	2304.93359	-29.60354	949.00421	2539.06641	95.49412	949.80951	2310.52588	223.71565	576.65759	2383.87036	262.82764	472.35776	2409.38281	192.43224	236.82713	2483.36304	258.71832	76.22271	2545.95068	191.80171	47.50574	2339.59546	259.16690	49.71799	2259.46484	21.94945	627.43304	2344.30396	-35.12379	463.21866	2357.18652	40.55474	321.46570	2464.59424	-27.21395	68.48091	2532.82227	27.05382	50.71239	2329.42578	-23.76217	52.42019	2291.45947	243.67006	46.54600	2330.18433	224.13686	56.73441	2424.13403	177.41368	62.71942	2496.82642	166.45029	46.30493	2521.47363	238.70848	48.29081	2448.79004	274.75995	41.01542	2382.66650	296.40140	42.70709	2284.91040	1.92321	48.64575	2317.89819	13.42122	54.01129	2410.50098	58.77697	55.97604	2493.83569	58.99055	49.36656	2506.15430	-13.10675	50.79890	2431.51733	-43.57159	42.93408	2369.19556	-52.11632	48.56010																																																	3011.73047	70.72453	850.11005	2922.75903	96.36561	-118.23069	1976.95178	120.27911	157.27994	
4	0.025	2398.43628	112.31820	1740.02124	2274.39624	114.71873	1675.86401	2494.48145	102.98459	1654.43262	2405.21387	307.26080	1426.13708	2525.65503	35.72876	1277.24451	2397.66431	414.04309	1100.32153	2217.64697	385.08209	907.67407	2378.74878	-103.51120	1430.89856	2384.71338	-192.35062	1105.71729	2294.55005	-180.20792	864.30090	2326.14526	259.42868	955.40228	2303.28931	-30.27811	948.48828	2537.83398	94.19451	950.09827	2310.49390	223.56053	576.38190	2383.68115	262.27286	472.43762	2409.29419	192.44273	236.75294	2483.46509	258.74173	76.26659	2545.98169	191.82071	47.51769	2339.68848	259.22296	49.67867	2258.42285	21.60885	627.11401	2343.27588	-35.48742	462.89880	2356.66040	40.42654	321.33099	2464.69385	-27.32454	68.42309	2532.92407	27.00340	50.65078	2329.56104	-23.70660	52.60201	2291.78491	244.06468	46.84072	2330.28101	224.14671	56.76038	2424.25439	177.53166	62.96756	2496.82056	166.57022	46.34557	2521.62793	238.72385	48.44147	2448.88428	274.83139	40.93122	2382.69360	296.59030	42.60851	2285.14331	2.04790	48.70981	2318.17700	13.52719	54.33247	2410.57764	58.79788	55.97998	2494.18408	58.82590	49.29311	2506.37061	-13.29844	50.75636	2431.66699	-43.64846	43.03826	2369.42676	-52.08363	48.59612																																																	3011.32471	69.96386	850.70898	2923.91284	96.33933	-118.42875	4534.33984	-328.61755	-11.80713	3099.43604	-147.54755	-143.20985	1977.03723	120.31464	157.30045	
